
        <svg xmlns="http://www.w3.org/2000/svg" xmlns:xlink="http://www.w3.org/1999/xlink" version="1.1" width="3165.7872001593623" 
        height="873.1459208393071" viewBox="0 0 3165.7872001593623 873.1459208393071">
			
			<g transform="scale(8.289360007968106) translate(10, 10)">
				<defs id="SvgjsDefs2075"></defs><g id="SvgjsG2076" featureKey="nRdZyp-0" transform="matrix(5.333333333333333,0,0,5.333333333333333,-16,-10.666666666666666)" fill="#047c9e"><title xmlns="http://www.w3.org/2000/svg">App</title><desc xmlns="http://www.w3.org/2000/svg">Created with Sketch.</desc><g xmlns="http://www.w3.org/2000/svg" stroke="none" stroke-width="1" fill="none" fill-rule="evenodd"><g transform="translate(-50.000000, -260.000000)" fill="#047c9e"><g transform="translate(20.000000, 260.000000)"><path d="M42.7638935,3 L36.9931023,3 C34.7873299,3 33,4.78777278 33,6.99310226 L33,13.0068977 C33,15.2126701 34.7877728,17 36.9931023,17 L43.0068977,17 C45.2126701,17 47,15.2122272 47,13.0068977 L47,7.23610651 C47.6137494,6.68678595 48,5.88849981 48,5 C48,3.34314575 46.6568542,2 45,2 C44.1115002,2 43.313214,2.38625064 42.7638935,3 Z M42,5 L36.999615,5 C35.8874333,5 35,5.89525812 35,6.99961498 L35,13.000385 C35,14.1125667 35.8952581,15 36.999615,15 L43.000385,15 C44.1125667,15 45,14.1047419 45,13.000385 L45,8 C43.3431458,8 42,6.65685425 42,5 Z M45,7 C46.1045695,7 47,6.1045695 47,5 C47,3.8954305 46.1045695,3 45,3 C43.8954305,3 43,3.8954305 43,5 C43,6.1045695 43.8954305,7 45,7 Z"></path></g></g></g></g><g id="SvgjsG2077" featureKey="Q4qmbg-0" transform="matrix(4.602510105189471,0,0,4.602510105189471,99.66109117491536,-19.786611796923783)" fill="#ffffff"><path d="M16.98 20 l-2.98 0 l0 -5.64 c0 -1.52 -0.42 -2.16 -1.54 -2.16 c-1.2 0 -1.9 0.64 -1.9 2.16 l0 5.64 l-2.98 0 l0 -5.64 c0 -1.52 -0.4 -2.16 -1.54 -2.16 c-1.2 0 -1.92 0.64 -1.92 2.16 l0 5.64 l-2.96 0 l0 -9.88 l2.96 0 l0 0.9 c0.7 -0.7 1.76 -1.04 2.7 -1.04 c1.4 0 2.3 0.52 2.94 1.34 c0.54 -0.66 1.7 -1.26 3.44 -1.34 c2.78 0 3.78 1.32 3.78 4.38 l0 5.64 z M21.123895833333336 13.04 l-2.2 -1.26 c1.1 -1.24 2.58 -1.82 4.12 -1.82 c2.96 0 4.16 1.62 4.16 3.14 l0 6.9 l-2.96 0 l0 -0.7 c-0.46 0.48 -1.28 0.84 -2.2 0.84 c-2.7 0 -3.74 -1.2 -3.74 -3.04 c0 -2.08 1.68 -3.48 4.4 -3.48 l1.54 0 c0 -0.74 -0.56 -1.22 -1.4 -1.22 c-0.86 0 -1.28 0.16 -1.72 0.64 z M24.243895833333333 16.740000000000002 l0 -0.88 l-1.74 0 c-0.78 0 -1.36 0.54 -1.24 1.3 c0.08 0.54 0.56 0.76 1.24 0.76 c1.3 0 1.74 -0.74 1.74 -1.18 z M32.50779166666666 15.8 c0 0.72 -0.02 1.92 1.08 1.92 c0.54 0 0.88 -0.22 1.26 -0.5 l0 2.44 c-0.46 0.26 -1.02 0.5 -1.62 0.5 c-2.54 0 -3.68 -1.08 -3.68 -4.36 l0 -3.24 l-1.1 0 l0 -2.44 l1.1 0 l0 -2.84 l2.96 0 l0 2.84 l2.34 0 l0 2.44 l-2.34 0 l0 3.24 z M43.251687499999996 10.26 l-0.4 2.22 c-0.74 -0.32 -0.88 -0.26 -1.22 -0.26 c-1.2 0 -1.9 0.64 -1.9 2.22 l0 5.56 l-2.96 0 l0 -9.88 l2.96 0 l0 0.88 c0.38 -0.68 1.42 -1.02 2.08 -1.02 c0.62 0 0.98 0.02 1.44 0.28 z M46.615583333333326 10.12 l0 9.88 l-2.96 0 l0 -9.88 l2.96 0 z M46.695583333333325 7.279999999999999 c0 0.84 -0.68 1.5 -1.58 1.5 c-0.86 0 -1.56 -0.66 -1.56 -1.5 c0 -0.82 0.7 -1.46 1.56 -1.46 c0.9 0 1.58 0.64 1.58 1.46 z M56.979479166666664 10.12 l-3.5 4.94 l3.5 4.94 l-3.4 0 l-1.68 -2.72 l-1.68 2.72 l-3.42 0 l3.52 -4.94 l-3.52 -4.94 l3.4 0 l1.68 2.7 c0.6 -0.88 1.12 -1.84 1.7 -2.7 l3.4 0 z"></path></g>
			</g>
		</svg>
	